<svg xmlns="http://www.w3.org/2000/svg" version="1.1" xmlns:xlink="http://www.w3.org/1999/xlink" xmlns:svgjs="http://svgjs.dev/svgjs" width="700" height="420" viewBox="0 0 1000 623"><g transform="matrix(1,0,0,1,-0.6060606060606233,0.2522267206477409)"><svg viewBox="0 0 396 247" data-background-color="#ffffff" preserveAspectRatio="xMidYMid meet" height="623" width="1000" xmlns="http://www.w3.org/2000/svg" xmlns:xlink="http://www.w3.org/1999/xlink"><g id="tight-bounds" transform="matrix(1,0,0,1,0.2400000000000091,-0.09999999999999432)"><svg viewBox="0 0 395.52 247.2" height="247.2" width="395.52"><g><svg></svg></g><g><svg viewBox="0 0 395.52 247.2" height="247.2" width="395.52"><g transform="matrix(1,0,0,1,151.11795398230086,47.215199999999996)"><svg viewBox="0 0 93.28409203539825 152.7696" height="152.7696" width="93.28409203539825"><g><svg viewBox="0 0 93.28409203539825 152.7696" height="152.7696" width="93.28409203539825"><g><svg viewBox="0 0 93.28409203539825 152.7696" height="152.7696" width="93.28409203539825"><g><svg viewBox="0 0 93.28409203539825 152.7696" height="152.7696" width="93.28409203539825"><g id="textblocktransform"><svg viewBox="0 0 93.28409203539825 152.7696" height="152.7696" width="93.28409203539825" id="textblock"><g><svg viewBox="0 0 93.28409203539825 152.7696" height="152.7696" width="93.28409203539825"><g transform="matrix(1,0,0,1,0,0)"><svg width="93.28409203539825" viewBox="1.7999999523162842 -33.5 20.700000762939453 33.900001525878906" height="152.7696" data-palette-color="#e83d95"><path d="M22.5-8.85L22.5-8.85Q22.5-6.35 21.5-4.58 20.5-2.8 18.93-1.7 17.35-0.6 15.38-0.1 13.4 0.4 11.45 0.4L11.45 0.4Q9.45 0.4 8 0 6.55-0.4 5.35-0.75L5.35-0.75Q4.55-1 3.9-1.18 3.25-1.35 2.6-1.35L2.6-1.35 2.6-7.05 3.1-7.05Q3.1-5.15 4.08-4.03 5.05-2.9 6.35-2.3 7.65-1.7 8.95-1.53 10.25-1.35 10.85-1.35L10.85-1.35Q13-1.35 14.55-1.98 16.1-2.6 17.1-3.63 18.1-4.65 18.57-5.9 19.05-7.15 19.05-8.45L19.05-8.45Q19.05-10.1 18.35-11.23 17.65-12.35 16.53-13.2 15.4-14.05 13.95-14.65 12.5-15.25 11-15.85L11-15.85Q9.3-16.5 7.65-17.2 6-17.9 4.7-18.93 3.4-19.95 2.6-21.38 1.8-22.8 1.8-24.9L1.8-24.9Q1.8-27.1 2.65-28.73 3.5-30.35 4.93-31.4 6.35-32.45 8.18-32.98 10-33.5 11.9-33.5L11.9-33.5Q13.2-33.5 14.35-33.33 15.5-33.15 16.55-32.9L16.55-32.9Q17.4-32.7 18.2-32.58 19-32.45 19.75-32.45L19.75-32.45 19.75-27.3 19.25-27.3Q19.15-29.9 17.2-30.83 15.25-31.75 11.8-31.75L11.8-31.75Q9.8-31.75 8.53-31.08 7.25-30.4 6.5-29.43 5.75-28.45 5.48-27.33 5.2-26.2 5.2-25.35L5.2-25.35Q5.2-23.95 5.83-22.95 6.45-21.95 7.5-21.2 8.55-20.45 9.93-19.85 11.3-19.25 12.8-18.7L12.8-18.7Q14.5-18.05 16.25-17.3 18-16.55 19.38-15.45 20.75-14.35 21.63-12.75 22.5-11.15 22.5-8.85Z" opacity="1" transform="matrix(1,0,0,1,0,0)" fill="#e83d95" class="wordmark-text-0" data-fill-palette-color="primary" id="text-0"></path></svg></g></svg></g></svg></g></svg></g></svg></g></svg></g></svg></g><g><path d="M0 123.6c0-68.262 55.338-123.6 123.6-123.6 30.402 0 58.24 10.976 79.768 29.183l-11.147 0c-19.26-14.022-42.974-22.294-68.621-22.295-25.647 0-49.361 8.272-68.621 22.295h-8.337v6.671c-24.37 21.391-39.754 52.772-39.754 87.746 0 34.974 15.384 66.356 39.754 87.746v6.671l8.337 0c19.26 14.022 42.974 22.294 68.621 22.295 25.647 0 49.361-8.272 68.621-22.295h11.147c-21.528 18.206-49.366 29.183-79.768 29.183-68.262 0-123.6-55.338-123.6-123.6z" fill="#e83d95" stroke="transparent" data-fill-palette-color="tertiary"></path></g></svg></g><defs></defs></svg><rect width="395.52" height="247.2" fill="none" stroke="none" visibility="hidden"></rect></g></svg></g></svg>